#tb 0: 1/5
#media_type 0: video
#codec_id 0: rawvideo
#dimensions 0: 320x240
#sar 0: 1/1
0,          0,          0,        1,   115200, 0x7262156b
0,          1,          1,        1,   115200, 0xa6aebc2f
0,          2,          2,        1,   115200, 0x9c7beba1
0,          3,          3,        1,   115200, 0x556037a2
0,          4,          4,        1,   115200, 0x532e3a23
0,          5,          5,        1,   115200, 0x110511f4
0,          6,          6,        1,   115200, 0xb7f929a4
0,          7,          7,        1,   115200, 0xdab9f3c2
0,          8,          8,        1,   115200, 0x441413dd
0,          9,          9,        1,   115200, 0x01163f33
0,         10,         10,        1,   115200, 0x47720c78
0,         11,         11,        1,   115200, 0x07c21356
0,         12,         12,        1,   115200, 0x085d4291
0,         13,         13,        1,   115200, 0xf6db074c
0,         14,         14,        1,   115200, 0x95093e75
0,         15,         15,        1,   115200, 0x5f8118ef
0,         16,         16,        1,   115200, 0x2b4de34a
0,         17,         17,        1,   115200, 0x0a731857
0,         18,         18,        1,   115200, 0xd75ef3be
0,         19,         19,        1,   115200, 0x321cf5a9
0,         20,         20,        1,   115200, 0x3eb222fd
0,         21,         21,        1,   115200, 0xc7d92f3e
0,         22,         22,        1,   115200, 0x6fda0366
0,         23,         23,        1,   115200, 0x6bb61b03
0,         24,         24,        1,   115200, 0x5f367ef8
0,         25,         25,        1,   115200, 0x237d0c77
0,         26,         26,        1,   115200, 0xafa813ef
0,         27,         27,        1,   115200, 0x39263ef4
0,         28,         28,        1,   115200, 0x47c70441
0,         29,         29,        1,   115200, 0xd43fffb0
0,         30,         30,        1,   115200, 0x75696afb
0,         31,         31,        1,   115200, 0xb0f117a3
0,         32,         32,        1,   115200, 0x002f42f0
0,         33,         33,        1,   115200, 0xa192487e
0,         34,         34,        1,   115200, 0x19a7072e
0,         35,         35,        1,   115200, 0xc500669c
0,         36,         36,        1,   115200, 0xe4636ba9
0,         37,         37,        1,   115200, 0xdf3d5d86
0,         38,         38,        1,   115200, 0xf30825d5
0,         39,         39,        1,   115200, 0xe3c944a1
0,         40,         40,        1,   115200, 0x8fec4420
